<?xml version="1.0" standalone="no"?>
<!DOCTYPE svg PUBLIC "-//W3C//DTD SVG 20010904//EN"
 "http://www.w3.org/TR/2001/REC-SVG-20010904/DTD/svg10.dtd">
<svg version="1.0" xmlns="http://www.w3.org/2000/svg"
 width="260.000000pt" height="260.000000pt" viewBox="0 0 260.000000 260.000000"
 preserveAspectRatio="xMidYMid meet">
<metadata>
Created by potrace 1.11, written by Peter Selinger 2001-2013
</metadata>
<g transform="translate(0.000000,260.000000) scale(0.100000,-0.100000)"
fill="#000000" stroke="none">
<path d="M0 1300 l0 -1300 1300 0 1300 0 0 1300 0 1300 -1300 0 -1300 0 0
-1300z m1511 760 c76 -23 169 -77 223 -128 121 -115 206 -344 206 -553 l0 -69
-522 0 -521 0 6 -92 c16 -224 81 -334 245 -415 73 -37 80 -38 181 -38 98 0
111 2 171 31 80 38 147 104 186 183 19 40 34 58 44 56 8 -2 54 -11 103 -21
100 -19 97 -13 46 -116 -58 -114 -199 -237 -329 -285 -168 -63 -391 -50 -545
30 -84 44 -210 172 -257 262 -77 148 -109 334 -89 517 19 176 55 281 135 393
104 145 242 234 414 265 71 13 231 3 303 -20z m-1341 -284 c5 -171 7 -189 24
-202 26 -18 39 -18 65 4 20 16 21 28 23 196 3 168 4 179 24 192 17 12 23 12
40 0 17 -13 19 -31 24 -197 l5 -183 27 -15 c24 -14 28 -14 47 3 20 18 21 30
21 193 0 162 1 174 21 194 18 18 23 19 42 6 22 -14 22 -20 25 -286 3 -297 0
-313 -56 -348 -15 -10 -30 -22 -34 -28 -4 -5 -8 -146 -8 -313 0 -189 -4 -311
-10 -323 -19 -35 -67 -51 -142 -47 -58 3 -72 8 -96 31 l-27 27 -3 312 -3 311
-40 36 c-27 25 -43 49 -49 76 -5 22 -10 149 -10 283 0 228 1 243 20 262 15 15
25 17 42 11 23 -8 23 -12 28 -195z m2328 171 c16 -11 18 -1267 2 -1298 -20
-35 -67 -51 -143 -47 -63 3 -72 7 -98 36 l-29 32 0 210 0 209 -92 3 -93 3 -3
330 c-2 220 1 343 8 368 13 44 70 111 113 133 15 9 47 19 70 24 50 10 247 8
265 -3z"/>
<path d="M1215 1907 c-98 -33 -168 -84 -220 -162 -41 -62 -71 -143 -81 -216
l-7 -49 397 0 396 0 0 43 c0 55 -24 145 -54 205 -30 59 -112 137 -174 165 -58
26 -197 33 -257 14z"/>
</g>
</svg>
